<svg width="32" height="32" viewBox="0 0 32 32" fill="none" xmlns="http://www.w3.org/2000/svg">
<path d="M13.1428 6.8572H18.857C18.857 6.09943 18.556 5.37271 18.0202 4.83689C17.4844 4.30107 16.7577 4.00005 15.9999 4.00005C15.2421 4.00005 14.5154 4.30107 13.9796 4.83689C13.4438 5.37271 13.1428 6.09943 13.1428 6.8572ZM11.4285 6.8572C11.4285 5.64478 11.9101 4.48202 12.7674 3.62471C13.6247 2.7674 14.7875 2.28577 15.9999 2.28577C17.2123 2.28577 18.3751 2.7674 19.2324 3.62471C20.0897 4.48202 20.5713 5.64478 20.5713 6.8572H27.7142C27.9415 6.8572 28.1595 6.9475 28.3203 7.10825C28.481 7.26899 28.5713 7.48701 28.5713 7.71434C28.5713 7.94167 28.481 8.15968 28.3203 8.32043C28.1595 8.48118 27.9415 8.57148 27.7142 8.57148H26.217L24.8262 25.2606C24.725 26.4747 24.1712 27.6064 23.2747 28.4314C22.3783 29.2563 21.2045 29.7142 19.9862 29.7143H12.0136C10.7953 29.7142 9.62154 29.2563 8.72504 28.4314C7.82855 27.6064 7.2748 26.4747 7.17361 25.2606L5.78275 8.57148H4.28561C4.05828 8.57148 3.84026 8.48118 3.67952 8.32043C3.51877 8.15968 3.42847 7.94167 3.42847 7.71434C3.42847 7.48701 3.51877 7.26899 3.67952 7.10825C3.84026 6.9475 4.05828 6.8572 4.28561 6.8572H11.4285ZM8.88218 25.1178C8.94754 25.9034 9.30575 26.6357 9.88578 27.1696C10.4658 27.7035 11.2253 27.9999 12.0136 28.0001H19.9862C20.7745 27.9999 21.534 27.7035 22.114 27.1696C22.694 26.6357 23.0523 25.9034 23.1176 25.1178L24.4982 8.57148H7.50275L8.88218 25.1178ZM13.4285 12.5715C13.6558 12.5715 13.8738 12.6618 14.0346 12.8225C14.1953 12.9833 14.2856 13.2013 14.2856 13.4286V23.1429C14.2856 23.3702 14.1953 23.5883 14.0346 23.749C13.8738 23.9097 13.6558 24.0001 13.4285 24.0001C13.2011 24.0001 12.9831 23.9097 12.8224 23.749C12.6616 23.5883 12.5713 23.3702 12.5713 23.1429V13.4286C12.5713 13.2013 12.6616 12.9833 12.8224 12.8225C12.9831 12.6618 13.2011 12.5715 13.4285 12.5715ZM19.4285 13.4286C19.4285 13.2013 19.3382 12.9833 19.1774 12.8225C19.0167 12.6618 18.7987 12.5715 18.5713 12.5715C18.344 12.5715 18.126 12.6618 17.9652 12.8225C17.8045 12.9833 17.7142 13.2013 17.7142 13.4286V23.1429C17.7142 23.3702 17.8045 23.5883 17.9652 23.749C18.126 23.9097 18.344 24.0001 18.5713 24.0001C18.7987 24.0001 19.0167 23.9097 19.1774 23.749C19.3382 23.5883 19.4285 23.3702 19.4285 23.1429V13.4286Z" fill="#B7B7B7"/>
</svg>
