<svg width="16" height="14" viewBox="0 0 16 14" fill="none" xmlns="http://www.w3.org/2000/svg">
<path d="M10.625 13H5.375M1 8.04016V3.56016C1 2.66407 1 2.2157 1.19074 1.87344C1.35852 1.57238 1.62604 1.32779 1.95532 1.17439C2.32967 1 2.82008 1 3.80017 1H12.2002C13.1803 1 13.6696 1 14.044 1.17439C14.3733 1.32779 14.6417 1.57238 14.8094 1.87344C15 2.21536 15 2.6632 15 3.55753V8.04247C15 8.9368 15 9.38399 14.8094 9.72592C14.6417 10.027 14.3733 10.2724 14.044 10.4258C13.67 10.6 13.1809 10.6 12.2027 10.6H3.7973C2.81912 10.6 2.3293 10.6 1.95532 10.4258C1.62604 10.2724 1.35852 10.027 1.19074 9.72592C1 9.38366 1 8.93624 1 8.04016Z" stroke="white" stroke-width="2" stroke-linecap="round" stroke-linejoin="round"/>
</svg>
