<svg width="20" height="20" viewBox="0 0 20 20" fill="none" xmlns="http://www.w3.org/2000/svg">
<path d="M4.24992 13.375C3.94436 12.8472 3.7152 12.3055 3.56242 11.75C3.40964 11.1944 3.33325 10.625 3.33325 10.0416C3.33325 8.18053 3.97909 6.5972 5.27075 5.29165C6.56242 3.98609 8.13881 3.33331 9.99992 3.33331H10.1458L8.81242 1.99998L9.97909 0.833313L13.3124 4.16665L9.97909 7.49998L8.81242 6.33331L10.1458 4.99998H9.99992C8.61103 4.99998 7.43047 5.4897 6.45825 6.46915C5.48603 7.44859 4.99992 8.63942 4.99992 10.0416C4.99992 10.4028 5.04159 10.7569 5.12492 11.1041C5.20825 11.4514 5.33325 11.7916 5.49992 12.125L4.24992 13.375ZM10.0208 19.1666L6.68742 15.8333L10.0208 12.5L11.1874 13.6666L9.85408 15H9.99992C11.3888 15 12.5694 14.5103 13.5416 13.5308C14.5138 12.5514 14.9999 11.3605 14.9999 9.95831C14.9999 9.5972 14.9583 9.24303 14.8749 8.89581C14.7916 8.54859 14.6666 8.20831 14.4999 7.87498L15.7499 6.62498C16.0555 7.15276 16.2846 7.69442 16.4374 8.24998C16.5902 8.80553 16.6666 9.37498 16.6666 9.95831C16.6666 11.8194 16.0208 13.4028 14.7291 14.7083C13.4374 16.0139 11.861 16.6666 9.99992 16.6666H9.85408L11.1874 18L10.0208 19.1666Z" fill="#5D5FEF"/>
</svg>
