<svg width="14" height="14" viewBox="0 0 14 14" fill="none" xmlns="http://www.w3.org/2000/svg">
<path d="M1 4.2002V9.8002C1 10.9203 1 11.4796 1.16349 11.9074C1.3073 12.2837 1.5366 12.5905 1.81885 12.7822C2.1394 13 2.55925 13 3.39768 13H10.6023C11.4408 13 11.86 13 12.1805 12.7822C12.4628 12.5905 12.6929 12.2837 12.8367 11.9074C13 11.48 13 10.921 13 9.80309V4.19691C13 3.07899 13 2.5192 12.8367 2.0918C12.6929 1.71547 12.4628 1.40973 12.1805 1.21799C11.8597 1 11.4402 1 10.6001 1H3.40015C2.56007 1 2.13972 1 1.81885 1.21799C1.5366 1.40973 1.3073 1.71547 1.16349 2.0918C1 2.51962 1 3.08009 1 4.2002Z" stroke="white" stroke-width="2" stroke-linecap="round" stroke-linejoin="round"/>
</svg>
